# xmcd CD database file
#
# Track frame offsets:
#	150
#	31230
#	63532
#	91294
#	119525
#	145557
#	170830
#	189734
#	238684
#	272350
#	297748
#	324448
#
# Disc length: 4658 seconds
#
# Revision: 0
# Processed by: cddbd v1.5.2PL0 Copyright (c) Steve Scherf et al.
# Submitted via: CDex 1.70beta2
#
DISCID=b312300c
DTITLE=Bembaya Jazz National - Parade Africaine
DYEAR=1973
DGENRE=Jazz
TTITLE0=Touraman
TTITLE1=Moussogbe
TTITLE2=Dia
TTITLE3=Demba
TTITLE4=Payapaya
TTITLE5=Sou
TTITLE6=Senero
TTITLE7=N'Gnamakoro
TTITLE8=Mami Wata
TTITLE9=Téléphone
TTITLE10=Kana Sarakabô
TTITLE11=Whisky Soda
EXTD=YEAR: 1973
EXTT0=
EXTT1=
EXTT2=
EXTT3=
EXTT4=
EXTT5=
EXTT6=
EXTT7=
EXTT8=
EXTT9=
EXTT10=
EXTT11=
PLAYORDER=
